<?xml version="1.0" encoding="utf-8"?>
<svg version="1.1" id="Icons" xmlns="http://www.w3.org/2000/svg" xmlns:xlink="http://www.w3.org/1999/xlink" fill="none" x="0px" y="0px"
	 xml:space="preserve">
<defs>
    <style>
      g {
        display: none;
      }
      g:target {
        display: inline;
      }
    </style>
  <clipPath id="box-32-clip"><path fill="#fff" d="M0 0h32v32H0z"/></clipPath>
  <filter id="a" width="108.9%" height="108.9%" x="-4.4%" y="-2.2%" filterUnits="objectBoundingBox">
      <feOffset dy="1" in="SourceAlpha" result="shadowOffsetOuter1"/>
      <feGaussianBlur in="shadowOffsetOuter1" result="shadowBlurOuter1" stdDeviation=".5"/>
      <feComposite in="shadowBlurOuter1" in2="SourceAlpha" operator="out" result="shadowBlurOuter1"/>
      <feColorMatrix in="shadowBlurOuter1" values="0 0 0 0 0 0 0 0 0 0 0 0 0 0 0 0 0 0 0.5 0"/>
  </filter>
  <path id="b" d="M34.468 17.234a17.234 17.234 0 0 1-17.234 17.234A17.234 17.234 0 0 1 0 17.234a17.234 17.234 0 0 1 34.468 0"/>   
</defs>
<g id="heart-red-stroked" clip-path="url(#box-32-clip)" viewBox="0 0 32 32">
<path d="M23.94 7.83a6.55 6.55 0 0 0-8.27 1.59A6.55 6.55 0 0 0 10.59 7c-1.15 0-2.24.3-3.18.83a6.715 6.715 0 0 0-3.08 7.92c.93 4.26 8.04 9.43 10.51 11.11.51.35 1.17.35 1.68 0 2.47-1.69 9.57-6.86 10.51-11.11a6.715 6.715 0 0 0-3.08-7.92h-.01Z" stroke="#302C2D" stroke-width="1.5" stroke-linecap="round" stroke-linejoin="round"/>
</g>
<g id="heart-red-filled" clip-path="url(#box-32-clip)" viewBox="0 0 32 32">
<path d="M23.94 7.83a6.55 6.55 0 0 0-8.27 1.59A6.55 6.55 0 0 0 10.59 7c-1.15 0-2.24.3-3.18.83a6.715 6.715 0 0 0-3.08 7.92c.93 4.26 8.04 9.43 10.51 11.11.51.35 1.17.35 1.68 0 2.47-1.69 9.57-6.86 10.51-11.11a6.715 6.715 0 0 0-3.08-7.92h-.01Z" fill="#CF2659" stroke="#CF2659" stroke-width="2" stroke-linecap="round" stroke-linejoin="round"/>
</g>
<g id="arrow-down" viewBox="0 0 24 24"><path fill="#333" fill-rule="evenodd" d="M7.41 8.84 12 13.42l4.59-4.58L18 10.25l-6 6-6-6z"/></g>
<g id="embla-arrow" viewBox="0 0 11 19">
  <path d="m8.583 18.667-7.75-7.75a1.211 1.211 0 0 1-.291-.438A1.38 1.38 0 0 1 .458 10c0-.195.028-.361.084-.5.055-.139.152-.278.291-.417L8.625 1.25a.99.99 0 0 1 .729-.292c.292 0 .549.097.771.292.195.222.292.479.292.771 0 .291-.111.548-.334.771L2.875 10l7.25 7.208a.965.965 0 0 1 .292.709c0 .277-.097.527-.292.75a1.058 1.058 0 0 1-1.542 0Z" fill="#fff"/>
</g>
<g id="black-play-icon" fill-rule="evenodd" transform="translate(1)" width="36" height="36" viewBox="0 0 36 36">
    <use fill="#000" filter="url(#a)" xlink:href="#b"/>
    <use fill="#000" fill-opacity=".8" xlink:href="#b"/>
    <path fill="#FFF" d="m25.865 18.342-12.246 6.483a.764.764 0 0 1-1.124-.676V11.181a.766.766 0 0 1 1.124-.676l12.246 6.483a.766.766 0 0 1 0 1.353"/>
</g>
<g id="magnify-icon" viewBox="0 0 25 25" width="25" height="25">
    <path fill="none" stroke="#333" stroke-width="3" d="M16.031 16.031a8.5 8.5 0 0 1-12.02 0 8.5 8.5 0 0 1 0-12.02 8.5 8.5 0 0 1 12.02 0 8.5 8.5 0 0 1 0 12.02zm0 0 7.071 7.071z"/>
</g>
</svg>
